{
    "asset": {
        "version": "2.0",
        "generator": "THREE.GLTFExporter"
    },
    "scenes": [
        {
            "nodes": [
                0,
                1,
                2
            ]
        }
    ],
    "scene": 0,
    "nodes": [
        {
            "mesh": 0
        },
        {
            "matrix": [
                1,
                0,
                0,
                0,
                0,
                1,
                0,
                0,
                0,
                0,
                1,
                0,
                2,
                3,
                4,
                1
            ],
            "extensions": {
                "KHR_lights_punctual": {
                    "light": 0
                }
            }
        },
        {
            "matrix": [
                1,
                0,
                0,
                0,
                0,
                1,
                0,
                0,
                0,
                0,
                1,
                0,
                0,
                0,
                2,
                1
            ],
            "camera": 0
        }
    ],
    "bufferViews": [
        {
            "buffer": 0,
            "byteOffset": 0,
            "byteLength": 20604,
            "target": 34962,
            "byteStride": 12
        },
        {
            "buffer": 0,
            "byteOffset": 20604,
            "byteLength": 20604,
            "target": 34962,
            "byteStride": 12
        },
        {
            "buffer": 0,
            "byteOffset": 41208,
            "byteLength": 13736,
            "target": 34962,
            "byteStride": 8
        },
        {
            "buffer": 0,
            "byteOffset": 54944,
            "byteLength": 19200,
            "target": 34963
        }
    ],
    "buffers": [
        {
            "byteLength": 74144,
            "uri": "data:application/octet-stream;base64,"
        }
    ],
    "accessors": [
        {
            "bufferView": 0,
            "componentType": 5126,
            "count": 1717,
            "max": [
                0.8999999761581421,
                0.8999999761581421,
                0.20000000298023224
            ],
            "min": [
                -0.8999999761581421,
                -0.8999999761581421,
                -0.20000000298023224
            ],
            "type": "VEC3"
        },
        {
            "bufferView": 1,
            "componentType": 5126,
            "count": 1717,
            "max": [
                1,
                1,
                1
            ],
            "min": [
                -1,
                -1,
                -1
            ],
            "type": "VEC3"
        },
        {
            "bufferView": 2,
            "componentType": 5126,
            "count": 1717,
            "max": [
                1,
                1
            ],
            "min": [
                0,
                0
            ],
            "type": "VEC2"
        },
        {
            "bufferView": 3,
            "componentType": 5123,
            "count": 9600,
            "max": [
                1716
            ],
            "min": [
                0
            ],
            "type": "SCALAR"
        }
    ],
    "materials": [
        {
            "pbrMetallicRoughness": {
                "baseColorFactor": [
                    1,
                    0,
                    0,
                    1
                ],
                "metallicFactor": 0,
                "roughnessFactor": 0.9
            },
            "extensions": {
                "KHR_materials_unlit": {}
            }
        }
    ],
    "meshes": [
        {
            "primitives": [
                {
                    "mode": 4,
                    "attributes": {
                        "POSITION": 0,
                        "NORMAL": 1,
                        "TEXCOORD_0": 2
                    },
                    "indices": 3,
                    "material": 0
                }
            ]
        }
    ],
    "extensions": {
        "KHR_lights_punctual": {
            "lights": [
                {
                    "color": [
                        1,
                        1,
                        1
                    ],
                    "intensity": 0.1,
                    "type": "point"
                }
            ]
        }
    },
    "cameras": [
        {
            "type": "perspective",
            "perspective": {
                "aspectRatio": 0.6729249011857708,
                "yfov": 1.3089969389957472,
                "zfar": 100,
                "znear": 0.1
            }
        }
    ],
    "extensionsUsed": [
        "KHR_materials_unlit",
        "KHR_lights_punctual"
    ]
}